<svg xmlns="http://www.w3.org/2000/svg" version="1.1" xmlns:xlink="http://www.w3.org/1999/xlink" viewBox="0 0 200 200"><rect width="200" height="200" fill="url('#gradient')"></rect><defs><linearGradient id="gradient" gradientTransform="rotate(217 0.5 0.5)"><stop offset="0%" stop-color="#b28c36"></stop><stop offset="100%" stop-color="#e3cc72"></stop></linearGradient></defs><g><g fill="#211e23" transform="matrix(7.311565637783563,0,0,7.311565637783563,-2.9439872453761637,154.873183646367)" stroke="#211e23" stroke-width="0.2"><path d="M7.47 0L5.17-3.94L4.24-3.01L4.24 0L0.95 0L0.95-15.01L4.24-15.01L4.24-7.04L4.57-7.48L7.05-10.57L11.00-10.57L7.29-6.22L11.24 0L7.47 0ZM11.88-10.57L14.97-10.57L15.08-9.33Q16.20-10.76 18.10-10.76L18.10-10.76Q20.10-10.76 20.80-9.17L20.80-9.17Q21.88-10.76 23.91-10.76L23.91-10.76Q27.12-10.76 27.21-6.88L27.21-6.88L27.21 0L23.91 0L23.91-6.67Q23.91-7.48 23.63-7.85Q23.36-8.22 22.64-8.22L22.64-8.22Q21.66-8.22 21.18-7.35L21.18-7.35L21.19-7.22L21.19 0L17.89 0L17.89-6.65Q17.89-7.48 17.63-7.85Q17.36-8.22 16.62-8.22L16.62-8.22Q15.67-8.22 15.18-7.35L15.18-7.35L15.18 0L11.88 0L11.88-10.57Z"></path></g></g></svg>